<svg width="1000" height="180" viewBox="0 0 1000 180" xmlns="http://www.w3.org/2000/svg">
<defs>
  <linearGradient id="space" x1="0" y1="0" x2="1" y2="1">
    <stop offset="0" stop-color="#070B1A"/>
    <stop offset="0.5" stop-color="#17104A"/>
    <stop offset="1" stop-color="#0B1230"/>
  </linearGradient>
  <linearGradient id="trail" x1="0" x2="1">
    <stop offset="0" stop-color="#4F46E5" stop-opacity="0"/>
    <stop offset="0.55" stop-color="#8B5CF6" stop-opacity="0.7"/>
    <stop offset="1" stop-color="#C4B5FD"/>
  </linearGradient>
  <filter id="glow"><feGaussianBlur stdDeviation="4" result="b"/><feMerge><feMergeNode in="b"/><feMergeNode in="SourceGraphic"/></feMerge></filter>
</defs>
<rect width="1000" height="180" rx="18" fill="url(#space)"/>
<g fill="#C4B5FD" opacity=".8">
  <circle cx="70" cy="35" r="1.5"/><circle cx="180" cy="125" r="1"/><circle cx="290" cy="48" r="1.4"/><circle cx="410" cy="140" r="1.2"/><circle cx="540" cy="30" r="1"/><circle cx="650" cy="120" r="1.5"/><circle cx="780" cy="45" r="1"/><circle cx="900" cy="135" r="1.4"/><circle cx="960" cy="60" r="1"/>
</g>
<g opacity=".35" stroke="#818CF8"><path d="M0 25H1000"/><path d="M0 155H1000"/></g>
<g filter="url(#glow)">
  <path d="M80 98 C250 98 380 98 700 98" stroke="url(#trail)" stroke-width="5" stroke-linecap="round" opacity=".9">
    <animate attributeName="x2" values="100;760;100" dur="5s" repeatCount="indefinite"/>
  </path>
  <g>
    <animateTransform attributeName="transform" type="translate" values="-90 0; 1010 0; -90 0" dur="5s" repeatCount="indefinite"/>
    <animateTransform attributeName="transform" type="translate" additive="sum" values="0 0;0 -8;0 0;0 8;0 0" dur="1.2s" repeatCount="indefinite"/>
    <path d="M0 90 L54 90 L68 100 L54 110 L0 110 L17 100 Z" fill="#EDE9FE"/>
    <path d="M30 90 L48 72 L58 90 Z" fill="#8B5CF6"/>
    <path d="M32 110 L48 128 L58 110 Z" fill="#6366F1"/>
    <circle cx="47" cy="100" r="5" fill="#A78BFA"/>
    <path d="M0 96 L-35 100 L0 104 Z" fill="#7C3AED"/>
    <path d="M-35 100 L-78 92 L-50 100 L-78 108 Z" fill="#C4B5FD" opacity=".9">
      <animate attributeName="d" values="M-35 100 L-78 92 L-50 100 L-78 108 Z;M-35 100 L-105 88 L-58 100 L-105 112 Z;M-35 100 L-78 92 L-50 100 L-78 108 Z" dur=".45s" repeatCount="indefinite"/>
    </path>
  </g>
</g>
<text x="500" y="160" text-anchor="middle" fill="#A78BFA" font-family="Arial, sans-serif" font-size="11" letter-spacing="4" opacity=".8">DATA ANALYST • BUSINESS INTELLIGENCE • SQL • POWER BI</text>
</svg>